<?xml version="1.0" encoding="iso-8859-1"?>
<!-- Uploaded to: SVG Repo, www.svgrepo.com, Generator: SVG Repo Mixer Tools -->
<!DOCTYPE svg PUBLIC "-//W3C//DTD SVG 1.1//EN" "http://www.w3.org/Graphics/SVG/1.1/DTD/svg11.dtd">
<svg fill="#000000" height="800px" width="800px" version="1.1" id="Capa_1" xmlns="http://www.w3.org/2000/svg" xmlns:xlink="http://www.w3.org/1999/xlink" 
	 viewBox="0 0 198.951 198.951" xml:space="preserve">
<path d="M170.79,23.97c2.762,0,5-2.238,5-5V5c0-2.762-2.238-5-5-5H28.162c-2.762,0-5,2.238-5,5v13.97c0,2.762,2.238,5,5,5h14.245
	l43.44,75.24L42.1,174.98H28.162c-2.762,0-5,2.238-5,5v13.971c0,2.762,2.238,5,5,5H170.79c2.762,0,5-2.238,5-5V179.98
	c0-2.762-2.238-5-5-5h-15.091l-43.747-75.77l43.441-75.24H170.79z M93.899,105.262v28.522H77.432L93.899,105.262z M120.367,133.784
	h-16.468v-28.522L120.367,133.784z M115.685,72.745H82.114L53.953,23.97h89.893L115.685,72.745z"/>
</svg>