<svg id="visual" viewBox="0 0 900 600" width="900" height="600" xmlns="http://www.w3.org/2000/svg" xmlns:xlink="http://www.w3.org/1999/xlink" version="1.1"><rect x="0" y="0" width="900" height="600" fill="#1c1f20"></rect><path d="M0 548L21.5 549.2C43 550.3 86 552.7 128.8 552C171.7 551.3 214.3 547.7 257.2 543.7C300 539.7 343 535.3 385.8 535.3C428.7 535.3 471.3 539.7 514.2 538.2C557 536.7 600 529.3 642.8 529.8C685.7 530.3 728.3 538.7 771.2 543.5C814 548.3 857 549.7 878.5 550.3L900 551L900 601L878.5 601C857 601 814 601 771.2 601C728.3 601 685.7 601 642.8 601C600 601 557 601 514.2 601C471.3 601 428.7 601 385.8 601C343 601 300 601 257.2 601C214.3 601 171.7 601 128.8 601C86 601 43 601 21.5 601L0 601Z" fill="#0066FF" stroke-linecap="round" stroke-linejoin="miter"></path></svg>