<svg xmlns="http://www.w3.org/2000/svg" viewBox="0 0 60 60" id="Gaming"><path fill="#d5678d" d="M3.5 42.302c0-4.937 11.963-9 26.5-9s26.5 4.063 26.5 9v-22c0-4.937-11.963-9-26.5-9s-26.5 4.063-26.5 9v22z" class="color67acd5 svgShape"></path><circle cx="51.481" cy="19.278" r="1" fill="#d86b90" class="colora3d86b svgShape"></circle><path fill="#ff87b0" d="M42.481 18.378v-3.2l2 1.6z" class="colorffda87 svgShape"></path><path fill="#f82b71" d="M35.92 21.717h2.121v2.121H35.92z" transform="rotate(-45.001 36.98 22.778)" class="colorff5345 svgShape"></path><circle cx="29.481" cy="16.278" r="1" fill="#975169" class="color516d97 svgShape"></circle><path fill="#f82b71" d="M14.481 27.693v-2.815l-2.607 2.086c.817.26 1.687.504 2.607.729z" class="colorff5345 svgShape"></path><path fill="#975169" d="M19.69 31.425l-1.195 9.939c-.337 2.803 3.325 4.159 4.896 1.813l3.572-5.336M40.257 31.425l1.195 9.939c.337 2.803-3.325 4.159-4.896 1.813l-3.571-5.335" class="color516d97 svgShape"></path><path fill="#975169" d="M35.796 27.283c-1 0-1.915.34-2.66.895h-6.312a4.433 4.433 0 0 0-2.66-.895 4.474 4.474 0 1 0 0 8.948 4.44 4.44 0 0 0 1.84-.405c-.03.131-.05.265-.05.405 0 .988.801 1.789 1.789 1.789a1.78 1.78 0 0 0 1.541-.895h1.391c.31.533.881.895 1.541.895.988 0 1.789-.801 1.789-1.789 0-.14-.02-.274-.05-.405a4.437 4.437 0 0 0 1.84.405 4.474 4.474 0 0 0 .001-8.948z" class="color516d97 svgShape"></path><path fill="#d86b90" d="M3.481 20.399v22c0 3.185 4.979 6.142 13.064 7.757v-22C8.46 26.541 3.481 23.584 3.481 20.399zM56.544 20.399v22c0 3.185-4.979 6.142-13.064 7.757v-22c8.085-1.615 13.064-4.572 13.064-7.757z" class="colora3d86b svgShape"></path><path fill="#5a4049" d="M43.417 50.656a.5.5 0 0 1-.5-.5v-22a.5.5 0 0 1 .402-.49c7.691-1.537 12.661-4.39 12.661-7.267 0-4.607-11.906-8.5-26-8.5s-26 3.893-26 8.5c0 2.877 4.97 5.729 12.661 7.267a.5.5 0 0 1 .402.49v22a.501.501 0 0 1-.598.491C8.015 48.962 2.98 45.879 2.98 42.399a.5.5 0 0 1 1 0c0 2.802 4.714 5.58 12.063 7.144V28.564C7.854 26.863 2.98 23.823 2.98 20.399c0-5.327 11.859-9.5 27-9.5s27 4.173 27 9.5c0 3.424-4.874 6.464-13.063 8.165v20.979c7.35-1.563 12.063-4.342 12.063-7.144a.5.5 0 0 1 1 0c0 3.479-5.034 6.563-13.466 8.247a.457.457 0 0 1-.097.01z" class="color40455a svgShape"></path><path fill="#5a4049" d="M43.418 35.156a.492.492 0 0 1-.1-.01 56.16 56.16 0 0 0-2.807-.492.5.5 0 1 1 .148-.988c.973.146 1.934.314 2.855.5a.5.5 0 0 1-.096.99zM16.543 35.156a.5.5 0 0 1-.098-.99c.914-.185 1.87-.353 2.843-.498.27-.036.527.146.568.42s-.146.527-.42.568c-.956.144-1.896.309-2.792.49a.508.508 0 0 1-.101.01z" class="color40455a svgShape"></path><path fill="#5a4049" d="M3.48 42.899a.5.5 0 0 1-.5-.5v-22a.5.5 0 0 1 1 0c0 2.877 4.97 5.729 12.661 7.267a.5.5 0 0 1 .402.49v6.502a.5.5 0 0 1-1 0v-6.094C10.027 27.314 5.8 25.342 3.98 23.025v19.374c0 .277-.223.5-.5.5zM56.48 42.899a.5.5 0 0 1-.5-.5V23.025c-1.819 2.316-6.047 4.289-12.063 5.539v6.094a.5.5 0 0 1-1 0v-6.502a.5.5 0 0 1 .402-.49c7.691-1.537 12.661-4.39 12.661-7.267a.5.5 0 0 1 1 0v22c0 .277-.223.5-.5.5zM21.19 44.871a3.28 3.28 0 0 1-1.137-.202c-1.172-.435-2.262-1.644-2.054-3.365l1.194-9.938a.5.5 0 1 1 .993.119l-1.194 9.938c-.151 1.263.664 2.032 1.409 2.309.747.278 1.869.223 2.575-.833l3.571-5.336a.5.5 0 1 1 .83.556l-3.571 5.336c-.677 1.013-1.675 1.416-2.616 1.416zM38.758 44.871c-.94 0-1.938-.403-2.616-1.416L32.57 38.12a.498.498 0 0 1 .137-.693.497.497 0 0 1 .693.137l3.571 5.335c.709 1.058 1.831 1.11 2.574.833.745-.275 1.562-1.046 1.41-2.309l-1.195-9.938a.5.5 0 1 1 .993-.119l1.195 9.938c.207 1.723-.883 2.932-2.055 3.366a3.287 3.287 0 0 1-1.135.201z" class="color40455a svgShape"></path><circle cx="27.743" cy="36.231" r=".671" fill="#5a4049" class="color40455a svgShape"></circle><circle cx="32.217" cy="36.231" r=".671" fill="#5a4049" class="color40455a svgShape"></circle><path fill="#5a4049" d="M28.658 34.046h-.936a.5.5 0 0 1 0-1h.936a.5.5 0 0 1 0 1zM32.237 34.046h-.936a.5.5 0 0 1 0-1h.936a.5.5 0 0 1 0 1zM22.898 33.522a.5.5 0 0 1-.354-.853l2.531-2.531a.5.5 0 0 1 .707.707l-2.531 2.531a.494.494 0 0 1-.353.146z" class="color40455a svgShape"></path><path fill="#5a4049" d="M25.43 33.522a.502.502 0 0 1-.354-.146l-2.531-2.531a.5.5 0 0 1 .707-.707l2.531 2.531a.5.5 0 0 1-.353.853zM10.48 20.777a.5.5 0 0 1-.354-.853l2-2a.5.5 0 0 1 .707.707l-2 2a.494.494 0 0 1-.353.146z" class="color40455a svgShape"></path><path fill="#5a4049" d="M12.48 20.777a.502.502 0 0 1-.354-.146l-2-2a.5.5 0 0 1 .707-.707l2 2a.5.5 0 0 1-.353.853zM22.48 22.777h-2a.5.5 0 0 1 0-1h2a.5.5 0 0 1 0 1z" class="color40455a svgShape"></path><path fill="#5a4049" d="M21.48 23.777a.5.5 0 0 1-.5-.5v-2a.5.5 0 0 1 1 0v2c0 .277-.223.5-.5.5zM47.48 25.777a.502.502 0 0 1-.354-.146l-2-2a.5.5 0 0 1 .707-.707l2 2a.5.5 0 0 1-.353.853z" class="color40455a svgShape"></path><path fill="#5a4049" d="M45.48 25.777a.5.5 0 0 1-.354-.853l2-2a.5.5 0 0 1 .707.707l-2 2a.494.494 0 0 1-.353.146z" class="color40455a svgShape"></path><circle cx="35.803" cy="29.965" r=".895" fill="#5a4049" class="color40455a svgShape"></circle><path fill="#5a4049" d="M29.48 17.777c-.827 0-1.5-.673-1.5-1.5s.673-1.5 1.5-1.5 1.5.673 1.5 1.5-.672 1.5-1.5 1.5zm0-2c-.275 0-.5.225-.5.5s.225.5.5.5.5-.225.5-.5-.224-.5-.5-.5zM51.48 20.777c-.827 0-1.5-.673-1.5-1.5s.673-1.5 1.5-1.5 1.5.673 1.5 1.5-.672 1.5-1.5 1.5zm0-2c-.275 0-.5.225-.5.5s.225.5.5.5.5-.225.5-.5-.224-.5-.5-.5z" class="color40455a svgShape"></path><circle cx="35.803" cy="33.544" r=".895" fill="#5a4049" class="color40455a svgShape"></circle><circle cx="37.593" cy="31.754" r=".895" fill="#5a4049" class="color40455a svgShape"></circle><circle cx="34.014" cy="31.754" r=".895" fill="#5a4049" class="color40455a svgShape"></circle><path fill="#5a4049" d="M32.217 38.52a2.293 2.293 0 0 1-1.807-.895h-.86a2.293 2.293 0 0 1-1.807.895 2.294 2.294 0 0 1-2.268-1.971c-.43.121-.868.182-1.312.182-2.742 0-4.974-2.231-4.974-4.974s2.231-4.974 4.974-4.974c1.007 0 1.979.309 2.82.895h5.99a4.912 4.912 0 0 1 2.821-.895c2.742 0 4.974 2.231 4.974 4.974s-2.231 4.974-4.974 4.974c-.443 0-.882-.061-1.313-.182a2.288 2.288 0 0 1-2.264 1.971zm-2.933-1.895h1.392c.178 0 .343.095.433.249.234.404.648.646 1.108.646a1.29 1.29 0 0 0 1.289-1.289c0-.09-.012-.186-.037-.293a.498.498 0 0 1 .693-.567c.528.239 1.078.36 1.634.36 2.191 0 3.974-1.782 3.974-3.974s-1.782-3.974-3.974-3.974c-.846 0-1.662.275-2.361.796a.51.51 0 0 1-.299.099h-6.313a.506.506 0 0 1-.299-.099 3.93 3.93 0 0 0-2.36-.796c-2.191 0-3.974 1.782-3.974 3.974s1.782 3.974 3.974 3.974c.556 0 1.105-.121 1.634-.36a.498.498 0 0 1 .693.567c-.025.11-.038.206-.038.293 0 .711.579 1.289 1.29 1.289.46 0 .874-.241 1.108-.646a.502.502 0 0 1 .433-.249zM36.98 24.777a.502.502 0 0 1-.354-.146l-1.5-1.5a.5.5 0 0 1 0-.707l1.5-1.5a.5.5 0 0 1 .707 0l1.5 1.5a.5.5 0 0 1 0 .707l-1.5 1.5a.494.494 0 0 1-.353.146zm-.792-2l.793.793.793-.793-.793-.793-.793.793zM42.48 18.878a.499.499 0 0 1-.5-.5v-3.2a.499.499 0 0 1 .812-.39l2 1.6a.502.502 0 0 1 0 .782l-2 1.601c-.09.07-.2.107-.312.107zm.5-2.66v1.119l.699-.56-.699-.559zM14.48 28.193a.48.48 0 0 1-.119-.015 41.141 41.141 0 0 1-2.64-.738.498.498 0 0 1-.161-.867l2.607-2.086a.498.498 0 0 1 .812.39v2.815a.501.501 0 0 1-.499.501zm-1.553-1.431c.343.099.694.195 1.054.289v-1.133l-1.054.844z" class="color40455a svgShape"></path><circle cx="13.47" cy="46.963" r=".5" fill="#5a4049" transform="rotate(-88.991 13.471 46.965)" class="color40455a svgShape"></circle><circle cx="11.479" cy="46.428" r=".5" fill="#5a4049" transform="rotate(-88.991 11.48 46.43)" class="color40455a svgShape"></circle><circle cx="9.491" cy="45.743" r=".5" fill="#5a4049" transform="rotate(-88.991 9.492 45.745)" class="color40455a svgShape"></circle><circle cx="50.47" cy="45.743" r=".5" fill="#5a4049" transform="rotate(-1.009 50.433 45.71)" class="color40455a svgShape"></circle><circle cx="48.479" cy="46.278" r=".5" fill="#5a4049" transform="rotate(-1.009 48.445 46.245)" class="color40455a svgShape"></circle><circle cx="46.491" cy="46.963" r=".5" fill="#5a4049" transform="rotate(-1.009 46.456 46.926)" class="color40455a svgShape"></circle></svg>