<svg xmlns="http://www.w3.org/2000/svg" xmlns:xlink="http://www.w3.org/1999/xlink" viewBox="0,0,256,256" width="24px" height="24px"><g fill="#00b5ff" fill-rule="nonzero" stroke="none" stroke-width="1" stroke-linecap="butt" stroke-linejoin="miter" stroke-miterlimit="10" stroke-dasharray="" stroke-dashoffset="0" font-family="none" font-weight="none" font-size="none" text-anchor="none" style="mix-blend-mode: normal"><g transform="scale(10.66667,10.66667)"><path d="M22,0h-20c-1.105,0 -2,0.895 -2,2v20c0,1.105 0.895,2 2,2h20c1.105,0 2,-0.895 2,-2v-20c0,-1.105 -0.895,-2 -2,-2zM14.823,20.598c-0.461,0.088 -0.619,-0.188 -0.619,-0.42c0,-0.287 0.011,-1.238 0.011,-2.422c0,-0.828 -0.292,-1.371 -0.608,-1.636c2.003,-0.217 4.106,-0.965 4.106,-4.363c0,-0.965 -0.349,-1.754 -0.923,-2.373c0.09,-0.223 0.394,-1.122 -0.09,-2.341c0,0 -0.754,-0.237 -2.464,0.906c-0.72,-0.197 -1.485,-0.294 -2.25,-0.298c-0.765,0.004 -1.53,0.102 -2.25,0.298c-1.719,-1.143 -2.473,-0.906 -2.473,-0.906c-0.484,1.218 -0.18,2.117 -0.079,2.341c-0.578,0.619 -0.926,1.408 -0.926,2.373c0,3.389 2.101,4.149 4.099,4.37c-0.257,0.221 -0.489,0.611 -0.57,1.183c-0.514,0.226 -1.819,0.617 -2.621,-0.736c0,0 -0.475,-0.849 -1.379,-0.911c0,0 -0.878,-0.011 -0.063,0.537c0,0 0.592,0.273 1.001,1.293c0,0 0.528,1.72 3.031,1.187c0.004,0.737 0.011,1.293 0.011,1.503c0,0.235 -0.165,0.509 -0.615,0.425c-3.574,-1.166 -6.152,-4.481 -6.152,-8.389c0,-4.884 4.028,-8.844 9,-8.844c4.97,0 9,3.96 9,8.844c0,3.902 -2.576,7.219 -6.177,8.379z"></path></g></g></svg>