<svg id="SvgjsSvg1094" width="288" height="288" xmlns="http://www.w3.org/2000/svg" version="1.1" xmlns:xlink="http://www.w3.org/1999/xlink" xmlns:svgjs="http://svgjs.com/svgjs"><defs id="SvgjsDefs1095"></defs><g id="SvgjsG1096"><svg xmlns="http://www.w3.org/2000/svg" data-name="Layer 1" viewBox="0 0 24 24" width="288" height="288"><rect width="23" height="16" x=".43" y="7.52" fill="#f59831" rx="1" ry="1" class="colorf59831 svgShape"></rect><rect width="14" height="12" x="2.43" y="9.52" fill="#ffffff" rx="1" ry="1" class="color54bbe8 svgShape"></rect><circle cx="19.93" cy="11.02" r="1.5" fill="#e0e1ef" class="colore0e1ef svgShape"></circle><path fill="#e0e1ef" d="M15.43,5.53h0a2,2,0,0,1,2,2v0a0,0,0,0,1,0,0h-4a0,0,0,0,1,0,0v0A2,2,0,0,1,15.43,5.53Z" class="colore0e1ef svgShape"></path><line x1="14.03" x2="11.43" y1="6.1" y2="1.52" fill="#8b8891"></line><line x1="19.43" x2="16.83" y1="1.52" y2="6.1" fill="#8b8891"></line><path d="M21.43,21h-3a.5.5,0,0,0,0,1h3a.5.5,0,0,0,0-1Zm-6-12h-12a1.5,1.5,0,0,0-1.5,1.5v10A1.5,1.5,0,0,0,3.43,22h12a1.5,1.5,0,0,0,1.5-1.5v-10A1.5,1.5,0,0,0,15.43,9Zm.5,11.5a.5.5,0,0,1-.5.5h-12a.5.5,0,0,1-.5-.5v-10a.5.5,0,0,1,.5-.5h12a.5.5,0,0,1,.5.5Zm5.5-1.5h-3a.5.5,0,0,0,0,1h3a.5.5,0,0,0,0-1ZM19.93,9a2,2,0,1,0,2,2A2,2,0,0,0,19.93,9Zm0,3a1,1,0,1,1,1-1A1,1,0,0,1,19.93,12Zm2.5-5H17.88a2.48,2.48,0,0,0-.44-1l2.43-4.28A.5.5,0,0,0,19,1.28L16.68,5.37a2.42,2.42,0,0,0-2.49,0L11.87,1.28a.5.5,0,1,0-.87.49L13.43,6A2.48,2.48,0,0,0,13,7H1.43a1.5,1.5,0,0,0-1.5,1.5v14A1.5,1.5,0,0,0,1.43,24h21a1.5,1.5,0,0,0,1.5-1.5v-14A1.5,1.5,0,0,0,22.43,7Zm-7-1a1.5,1.5,0,0,1,1.41,1H14A1.5,1.5,0,0,1,15.43,6Zm7.5,16.5a.5.5,0,0,1-.5.5h-21a.5.5,0,0,1-.5-.5v-14a.5.5,0,0,1,.5-.5h21a.5.5,0,0,1,.5.5Zm-3.64-7.65a.52.52,0,0,0,.14-.35.51.51,0,0,0-.14-.36.51.51,0,0,0-.71,0,.51.51,0,0,0-.14.36.52.52,0,0,0,.14.35.53.53,0,0,0,.35.15A.54.54,0,0,0,19.29,14.88ZM21.43,17h-3a.5.5,0,0,0,0,1h3a.5.5,0,0,0,0-1Zm-.31-2a.51.51,0,0,0,.17-.11.53.53,0,0,0,.15-.35.51.51,0,0,0-.15-.36.52.52,0,0,0-.71,0,.49.49,0,0,0,0,.71.51.51,0,0,0,.36.15A.6.6,0,0,0,21.12,15Z" fill="#000000" class="color000 svgShape"></path></svg></g></svg>