<svg xmlns="http://www.w3.org/2000/svg"  viewBox="0 0 64 64" width="64px" height="64px"><path d="M31.177 25.096c-2.064 0-3.737 1.673-3.737 3.737v6.376c0 1.167-.946 2.112-2.112 2.112h-7.193v1.583h8.555c2.064 0 3.737-1.673 3.737-3.737v-6.376c0-1.167.946-2.112 2.112-2.112l7.327 0v-1.583H31.177zM0 25.096v1.583h15.025c1.197 0 2.168.971 2.168 2.168 0 1.197-.971 2.168-2.168 2.168H3.737C1.673 31.015 0 32.688 0 34.752v4.152h2.986v-4.193c0-1.167.946-2.112 2.112-2.112h11.329c2.072 0 3.751-1.68 3.751-3.751 0-2.072-1.679-3.751-3.751-3.751H0zM43.803 25.096v5.156c0 1.296 1.05 2.346 2.346 2.346h12.503c1.304 0 2.361 1.057 2.361 2.361 0 1.304-1.057 2.361-2.361 2.361H43.803v1.583h16.253c2.178 0 3.944-1.766 3.944-3.944 0-2.178-1.766-3.944-3.944-3.944H47.732c-.521 0-.943-.422-.943-.943v-3.393h16.67v-1.583H43.803z"/></svg>