<svg xmlns="http://www.w3.org/2000/svg" fill="none" viewBox="0 0 25 24" id="amazonluna"><rect width="24" height="24" x=".463" fill="url(#paint0_linear_302_5171)" rx="8"></rect><path fill="#ffffff" fill-rule="evenodd" d="M9.33333 6.28572C9.33333 5.02335 10.3567 4 11.6191 4C12.8814 4 13.9047 5.02335 13.9047 6.28572C13.9047 6.39173 13.8875 6.55585 13.8661 6.75871C13.8035 7.35253 13.706 8.27832 13.9047 9.05053C14.1715 10.0865 15.5469 12.6766 16.7437 13.5161C17.0303 13.7172 17.3665 13.8906 17.7119 14.0688C18.8089 14.6348 20 15.2492 20 16.9524C20 18.6356 18.6356 20 16.9524 20C16.2224 20 15.6436 19.5735 15.0291 19.1206C14.6777 18.8616 14.3145 18.594 13.9047 18.3925C12.7783 17.8388 8.0626 17.8924 7.27665 18.1425C6.93455 18.2513 6.66502 18.4008 6.42319 18.535C6.10945 18.7089 5.84233 18.8572 5.52381 18.8572C4.68223 18.8572 4 18.1749 4 17.3333C4 16.5442 4.85493 15.8576 5.41609 15.407C5.45341 15.3769 5.48943 15.3481 5.52381 15.3202C6.07521 14.8737 8.07687 11.8502 9.09861 9.22915C9.3935 8.47268 9.37125 7.75037 9.34713 6.96692C9.34031 6.74545 9.33333 6.51911 9.33333 6.28572ZM8.50953 15.4669C9.07874 16.3664 13.7242 16.5136 14.6056 15.467C15.3498 14.5832 13.1929 10.3006 11.6689 10.1902C10.1449 10.0799 7.94033 14.5674 8.50953 15.4669Z" clip-rule="evenodd" class="colorffffff svgShape"></path><defs><linearGradient id="paint0_linear_302_5171" x1=".463" x2="24.463" y1="12" y2="12" gradientUnits="userSpaceOnUse"><stop stop-color="#00b5fe" class="stopColored6d6b svgShape"></stop><stop offset="1" stop-color="#76cdf0" class="stopColorf0b076 svgShape"></stop></linearGradient></defs></svg>